<?xml version="1.0" standalone="no"?>
<!DOCTYPE svg PUBLIC "-//W3C//DTD SVG 20010904//EN"
 "http://www.w3.org/TR/2001/REC-SVG-20010904/DTD/svg10.dtd">
<svg version="1.0" xmlns="http://www.w3.org/2000/svg"
 width="609.000000pt" height="607.000000pt" viewBox="0 0 609.000000 607.000000"
 preserveAspectRatio="xMidYMid meet">

<g transform="translate(0.000000,607.000000) scale(0.100000,-0.100000)"
fill="#000000" stroke="none">
<path d="M2820 6064 c-19 -2 -80 -9 -135 -15 -694 -73 -1400 -435 -1878 -964
-465 -516 -732 -1132 -787 -1819 -96 -1215 557 -2379 1646 -2933 452 -230 859
-327 1374 -327 515 0 922 97 1374 327 412 209 760 501 1041 872 818 1078 818
2582 0 3660 -493 650 -1204 1067 -2015 1180 -109 15 -540 28 -620 19z m-213
-1331 c38 -18 101 -100 189 -250 52 -88 65 -123 44 -123 -5 0 -10 -4 -10 -10
0 -5 8 -10 18 -10 11 0 27 -9 36 -19 32 -35 172 -406 192 -506 7 -39 -21 -76
-79 -104 -147 -71 -240 45 -237 299 1 129 -4 191 -19 227 -14 35 -78 75 -124
76 -55 1 -177 -72 -177 -107 0 -11 9 -11 52 0 102 27 205 11 223 -34 8 -22 -2
-29 -55 -36 -80 -11 -172 -43 -218 -77 -67 -49 -55 -61 36 -33 95 30 160 31
212 4 22 -11 40 -25 40 -30 0 -5 -21 -11 -47 -15 -83 -10 -197 -45 -237 -73
-42 -29 -64 -57 -54 -67 4 -4 47 -10 96 -14 98 -8 112 -13 112 -41 0 -20 -30
-34 -57 -27 -106 29 -95 8 26 -53 115 -57 133 -74 72 -68 -56 5 -53 -11 10
-61 72 -58 110 -67 188 -47 71 18 171 63 171 77 0 5 -16 9 -35 9 -49 0 -43 14
12 28 64 18 133 88 133 136 0 50 -34 171 -74 264 -20 46 -36 86 -36 89 0 3 44
3 98 0 155 -9 192 -28 336 -166 240 -231 369 -342 382 -328 3 3 -54 66 -127
141 -72 75 -130 139 -127 141 3 3 27 -10 54 -29 111 -75 129 -81 249 -80 218
2 519 76 716 175 170 85 515 377 748 634 84 92 84 80 -1 -62 -107 -179 -250
-356 -463 -569 -391 -392 -757 -611 -1142 -683 -104 -20 -214 -32 -578 -66
-187 -18 -315 -39 -355 -60 -30 -16 -165 -163 -157 -171 3 -3 77 6 164 20 87
14 284 37 438 51 689 61 783 80 1036 211 276 143 777 528 907 698 38 49 36 20
-3 -43 -99 -164 -221 -294 -495 -531 -508 -440 -588 -481 -1580 -815 -322
-108 -349 -119 -495 -192 -193 -96 -334 -201 -657 -485 -251 -220 -326 -269
-439 -288 -172 -27 -327 -3 -406 65 -45 38 -58 68 -68 155 l-6 55 87 83 c47
46 84 86 81 88 -3 3 -20 -2 -38 -11 -31 -16 -33 -16 -46 1 -7 10 -13 24 -13
31 0 42 -90 35 -274 -19 -84 -25 -103 -27 -128 -17 -17 7 -28 19 -28 31 0 42
106 283 176 398 18 30 47 92 64 138 17 45 35 80 39 77 5 -2 12 -19 17 -37 7
-29 9 -26 12 30 4 76 -14 136 -63 213 -20 32 -35 67 -35 86 0 19 22 74 55 139
41 80 54 115 50 134 -5 22 6 38 70 107 41 45 117 117 168 161 l92 78 13 80
c17 108 16 337 -2 416 -22 93 -66 409 -66 465 0 52 8 93 19 93 4 0 49 -36 101
-81 52 -45 160 -132 240 -194 80 -62 183 -147 229 -190 98 -88 101 -90 160
-100 41 -7 43 -9 26 -21 -10 -7 -48 -23 -84 -35 -117 -39 -254 -103 -343 -163
-86 -57 -258 -209 -248 -219 3 -3 64 34 136 82 147 98 308 184 445 237 165 64
126 7 -81 -116 -330 -197 -493 -383 -599 -683 -31 -89 -39 -129 -22 -111 5 5
40 65 76 134 99 184 144 247 263 368 93 94 327 283 417 336 43 25 56 46 116
186 60 142 153 327 203 403 54 84 137 178 185 209 53 33 53 33 98 11z m499
-2203 c-34 -36 -70 -98 -135 -232 -57 -119 -108 -208 -144 -253 -116 -148
-319 -278 -637 -410 -63 -26 -230 -103 -370 -171 -175 -85 -274 -128 -315
-135 -181 -33 -322 35 -439 212 -28 43 -50 66 -71 72 -16 5 -46 25 -66 44 -41
39 -115 163 -124 208 -5 26 6 17 89 -68 52 -54 98 -107 101 -118 5 -15 12 -18
27 -13 18 5 20 3 14 -19 -6 -24 -3 -26 41 -32 27 -3 98 -15 158 -26 186 -33
332 -21 444 36 54 27 153 104 293 228 344 306 521 428 842 582 151 73 313 144
330 145 5 0 -12 -22 -38 -50z m-2040 -464 l28 -23 -37 -44 c-45 -56 -57 -87
-57 -150 0 -27 -4 -49 -8 -49 -16 0 -65 112 -70 159 -5 57 8 85 51 111 42 26
60 25 93 -4z"/>
<path d="M2530 4443 c-29 -36 -48 -79 -38 -88 2 -3 22 4 43 15 22 11 47 20 57
20 27 0 22 19 -7 26 -20 5 -23 10 -18 35 7 38 1 37 -37 -8z"/>
<path d="M2221 4223 c-6 -10 -47 -90 -90 -179 -44 -88 -96 -184 -116 -213 -19
-30 -33 -56 -31 -59 3 -2 25 -1 50 2 53 8 73 31 113 129 61 149 118 397 74
320z"/>
<path d="M2628 3186 c-95 -77 -191 -133 -328 -191 -74 -32 -182 -77 -240 -102
-58 -24 -139 -65 -180 -91 -83 -51 -206 -170 -292 -283 -57 -75 -128 -186
-128 -201 0 -30 52 12 188 153 239 246 268 266 580 403 107 47 219 100 250
118 63 37 232 199 232 223 0 26 -26 17 -82 -29z"/>
<path d="M1755 3043 c-44 -19 -133 -57 -198 -83 -132 -54 -160 -70 -182 -103
-12 -19 -47 -146 -80 -294 -10 -41 11 -24 75 62 l62 85 123 59 c137 67 197
117 264 221 42 65 50 90 29 90 -7 0 -49 -17 -93 -37z"/>
</g>
</svg>
